<?xml version="1.0" encoding="UTF-8"?>
<svg version="1.1" xmlns="http://www.w3.org/2000/svg" width="500" height="500">
<path d="M0 0 C5.53314073 4.8744335 6.99081265 9.470473 7.6003418 16.56152344 C7.64184609 21.19192317 6.55903143 25.42343431 5.375 29.875 C5.15714844 30.75607422 4.93929687 31.63714844 4.71484375 32.54492188 C3.44006941 37.59556289 1.94495693 42.51514853 0.18457031 47.41772461 C-0.51661495 49.46274681 -0.51661495 49.46274681 -0.375 52.3125 C0.24955078 52.10044922 0.87410156 51.88839844 1.51757812 51.66992188 C4.38269269 50.70498692 7.25363415 49.75866254 10.125 48.8125 C11.10726562 48.47863281 12.08953125 48.14476562 13.1015625 47.80078125 C20.28164445 45.45528781 25.93000408 44.12258606 33.3125 46.5 C38.11631046 49.12850006 41.53555893 52.21315924 43.625 57.3125 C44.77916326 65.61979135 42.87434557 73.47382702 40.8359375 81.46484375 C39.18345968 87.94315377 37.84091189 94.48917015 36.46411133 101.03051758 C35.25588395 106.68267388 33.84769223 112.24021169 32.29663086 117.80761719 C31.43706821 121.01340155 30.79199594 124.23722376 30.1875 127.5 C29.0997796 133.10036552 27.81860915 138.60501331 26.38916016 144.12670898 C24.07247589 153.25685416 22.15380355 162.48315995 20.17480469 171.69116211 C18.89696048 177.61845021 17.59677095 183.53076013 16.09375 189.40625 C15.00002601 193.69437116 14.04490077 197.99196291 13.16015625 202.328125 C12.79567383 204.11089844 12.79567383 204.11089844 12.42382812 205.9296875 C11.93005291 208.36581988 11.44314915 210.80335444 10.96289062 213.2421875 C8.87186662 223.3717919 6.16015253 231.87343279 -2.375 238.3125 C-4.72192383 239.35107422 -4.72192383 239.35107422 -7.33203125 240.2421875 C-8.30809326 240.58056641 -9.28415527 240.91894531 -10.28979492 241.26757812 C-11.3079126 241.61240234 -12.32603027 241.95722656 -13.375 242.3125 C-15.36728503 243.00753299 -17.35947012 243.70285252 -19.3515625 244.3984375 C-21.56730593 245.16262608 -23.78347711 245.92557519 -26 246.6875 C-27.22420654 247.1088623 -28.44841309 247.53022461 -29.7097168 247.96435547 C-79.4574283 265.07675657 -79.4574283 265.07675657 -98.43530273 271.32104492 C-103.60673231 273.02986912 -108.75761007 274.78934248 -113.89511108 276.597229 C-117.05850877 277.71024977 -120.22454841 278.81567165 -123.39044189 279.92156982 C-124.94164624 280.46619065 -126.49146258 281.01478407 -128.03973389 281.56768799 C-149.40414081 289.19554142 -149.40414081 289.19554142 -159.4609375 285.33984375 C-162.93911281 283.47298639 -164.65529001 280.75191997 -166.375 277.3125 C-166.95845866 269.69387635 -166.39112603 262.91770281 -164.03125 255.65234375 C-163.19496849 253.07562366 -163.19496849 253.07562366 -163.375 249.3125 C-164.8290625 250.3025 -164.8290625 250.3025 -166.3125 251.3125 C-170.74602704 253.76867398 -174.39896743 254.4673736 -179.375 253.3125 C-182.48945648 251.80703558 -185.35638445 250.08088103 -188.28125 248.234375 C-191.18997933 246.42743708 -194.10113117 244.91431089 -197.1875 243.4375 C-202.02899635 241.05192782 -206.72194973 238.48031622 -211.375 235.75 C-212.01026611 235.38600098 -212.64553223 235.02200195 -213.30004883 234.64697266 C-218.21378624 231.71647883 -221.54455644 228.80383069 -223.375 223.3125 C-224.21778568 215.05380813 -222.29455652 207.35510419 -220.375 199.375 C-220.0589404 198.02508228 -219.74402622 196.67489594 -219.43017578 195.32446289 C-218.76476258 192.46673633 -218.09379992 189.610394 -217.41894531 186.75488281 C-215.82876205 180.01028673 -214.29906071 173.25184295 -212.76156616 166.49508667 C-212.08525117 163.52697446 -211.40524019 160.55971455 -210.72520447 157.592453 C-209.42752403 151.92981469 -208.13620695 146.26592459 -206.86328125 140.59765625 C-206.63979004 139.60451416 -206.41629883 138.61137207 -206.18603516 137.58813477 C-205.79165874 135.83258839 -205.39916279 134.07661759 -205.00927734 132.32006836 C-204.08352668 128.20376889 -203.06158205 124.13680029 -201.921875 120.07421875 C-200.14457573 113.64898708 -198.79404448 107.14977849 -197.4375 100.625 C-195.28986067 90.45813262 -193.05028531 80.35398185 -190.375 70.3125 C-190.14425781 69.35601562 -189.91351563 68.39953125 -189.67578125 67.4140625 C-187.41763155 58.72083878 -183.32545785 53.11159297 -175.63989258 48.48413086 C-171.77992735 46.48736756 -167.73930216 45.39641812 -163.5625 44.25 C-151.4945409 40.76524814 -139.65687479 36.70243875 -127.79760742 32.57592773 C-119.37004736 29.64845888 -110.9181833 26.88833092 -102.375 24.3125 C-85.6934392 19.17576511 -69.0586216 13.93220164 -52.51342773 8.36987305 C-44.16785555 5.56571535 -35.79808551 2.874732 -27.375 0.3125 C-25.86873047 -0.14769531 -25.86873047 -0.14769531 -24.33203125 -0.6171875 C-22.01596556 -1.31902559 -19.70125801 -2.02027871 -17.375 -2.6875 C-16.72789062 -2.89246094 -16.08078125 -3.09742187 -15.4140625 -3.30859375 C-10.16102104 -4.28473364 -4.64852551 -2.32426275 0 0 Z " fill="#F47152" transform="translate(335.375,105.6875)"/>
<path d="M0 0 C3.86690064 3.35131389 6.61944672 6.26090136 7.3359375 11.41796875 C7.4428247 18.99627132 6.06979053 25.86522305 4.2109375 33.15234375 C2.55845968 39.63065377 1.21591189 46.17667015 -0.16088867 52.71801758 C-1.36911605 58.37017388 -2.77730777 63.92771169 -4.32836914 69.49511719 C-5.18793179 72.70090155 -5.83300406 75.92472376 -6.4375 79.1875 C-7.5252204 84.78786552 -8.80639085 90.29251331 -10.23583984 95.81420898 C-12.55252411 104.94435416 -14.47119645 114.17065995 -16.45019531 123.37866211 C-17.72803952 129.30595021 -19.02822905 135.21826013 -20.53125 141.09375 C-21.62497399 145.38187116 -22.58009923 149.67946291 -23.46484375 154.015625 C-23.82932617 155.79839844 -23.82932617 155.79839844 -24.20117188 157.6171875 C-24.69494709 160.05331988 -25.18185085 162.49085444 -25.66210938 164.9296875 C-27.75313338 175.0592919 -30.46484747 183.56093279 -39 190 C-41.34692383 191.03857422 -41.34692383 191.03857422 -43.95703125 191.9296875 C-44.93309326 192.26806641 -45.90915527 192.60644531 -46.91479492 192.95507812 C-47.9329126 193.29990234 -48.95103027 193.64472656 -50 194 C-51.99228503 194.69503299 -53.98447012 195.39035252 -55.9765625 196.0859375 C-58.19230593 196.85012608 -60.40847711 197.61307519 -62.625 198.375 C-63.84920654 198.7963623 -65.07341309 199.21772461 -66.3347168 199.65185547 C-116.0824283 216.76425657 -116.0824283 216.76425657 -135.06030273 223.00854492 C-140.23173231 224.71736912 -145.38261007 226.47684248 -150.52011108 228.284729 C-153.68350877 229.39774977 -156.84954841 230.50317165 -160.01544189 231.60906982 C-161.56664624 232.15369065 -163.11646258 232.70228407 -164.66473389 233.25518799 C-186.02914081 240.88304142 -186.02914081 240.88304142 -196.0859375 237.02734375 C-199.56411281 235.16048639 -201.28029001 232.43941997 -203 229 C-203.58345866 221.38137635 -203.01612603 214.60520281 -200.65625 207.33984375 C-199.81996849 204.76312366 -199.81996849 204.76312366 -200 201 C-201.4540625 201.99 -201.4540625 201.99 -202.9375 203 C-207.37102704 205.45617398 -211.02396743 206.1548736 -216 205 C-219.11445648 203.49453558 -221.98138445 201.76838103 -224.90625 199.921875 C-227.81497933 198.11493708 -230.72613117 196.60181089 -233.8125 195.125 C-238.65399635 192.73942782 -243.34694973 190.16781622 -248 187.4375 C-248.63526611 187.07350098 -249.27053223 186.70950195 -249.92504883 186.33447266 C-253.76021744 184.04722427 -256.62636919 181.81388075 -259 178 C-258.67 177.01 -258.34 176.02 -258 175 C-257.67 175.33 -257.34 175.66 -257 176 C-256.319375 174.824375 -256.319375 174.824375 -255.625 173.625 C-253.43116338 170.08111007 -251.8990902 168.79901723 -248.01953125 167.5546875 C-247.19864014 167.28712646 -246.37774902 167.01956543 -245.53198242 166.74389648 C-244.63455322 166.45716064 -243.73712402 166.1704248 -242.8125 165.875 C-240.86677099 165.2395552 -238.92147137 164.60279435 -236.9765625 163.96484375 C-235.47464355 163.47346924 -235.47464355 163.47346924 -233.94238281 162.97216797 C-229.50775125 161.50695864 -225.09643359 159.97804427 -220.6875 158.4375 C-219.31452759 157.95845215 -219.31452759 157.95845215 -217.91381836 157.46972656 C-214.60857725 156.31495812 -211.30420834 155.15772037 -208 154 C-206.5148123 153.47965179 -205.02962343 152.95930694 -203.54443359 152.43896484 C-202.75264709 152.16155457 -201.9608606 151.88414429 -201.14508057 151.59832764 C-146.10166438 132.3138054 -146.10166438 132.3138054 -131.51464844 127.53417969 C-121.03739024 124.09599484 -110.63246626 120.45319848 -100.24188232 116.76257324 C-98.46834211 116.13369953 -96.69381579 115.50759932 -94.91827393 114.88439941 C-92.40214709 114.00016106 -89.89016442 113.1049894 -87.37890625 112.20703125 C-86.62347031 111.9436647 -85.86803436 111.68029816 -85.08970642 111.40895081 C-80.59503595 109.78555722 -76.90040569 107.8294117 -73 105 C-72.01 104.29875 -71.02 103.5975 -70 102.875 C-60.51831438 94.5566549 -58.59681205 82.05798679 -55.875 70.375 C-55.45599013 68.62853051 -55.03542613 66.88243312 -54.61328125 65.13671875 C-53.78825074 61.71659666 -52.97119443 58.29473328 -52.16088867 54.87109375 C-49.73000486 44.62823507 -47.14781094 34.42243634 -44.4375 24.25 C-42.56511874 17.1811294 -40.74358961 10.10193819 -39 3 C-38.01 3.495 -38.01 3.495 -37 4 C-34.7781509 3.47893065 -34.7781509 3.47893065 -32.2734375 2.56640625 C-31.32339844 2.24736328 -30.37335938 1.92832031 -29.39453125 1.59960938 C-27.4036714 0.91581469 -25.41405221 0.22839563 -23.42578125 -0.46289062 C-14.85138791 -3.3306386 -8.32338702 -4.55430611 0 0 Z " fill="#D2563C" transform="translate(372,154)"/>
<path d="M0 0 C-4.35933627 3.21889071 -8.32961571 4.93749395 -13.625 6.1875 C-14.27984375 6.35185547 -14.9346875 6.51621094 -15.609375 6.68554688 C-18.1975725 7.33259625 -20.78401593 7.9560293 -23.3984375 8.48828125 C-23.92695313 8.65714844 -24.45546875 8.82601563 -25 9 C-25.33 9.66 -25.66 10.32 -26 11 C-27.33333333 11.33333333 -28.66666667 11.66666667 -30 12 C-30.33 12.66 -30.66 13.32 -31 14 C-32.00353516 14.41185547 -32.00353516 14.41185547 -33.02734375 14.83203125 C-33.67832031 15.21746094 -34.32929688 15.60289062 -35 16 C-35.59311175 18.18481489 -35.59311175 18.18481489 -35.5625 20.6875 C-35.75915084 24.09939215 -36.0913282 26.72031482 -37.5625 29.8125 C-38.99865832 32.99702497 -39.09167539 34.60801068 -39 38 C-40 40.3125 -40 40.3125 -41 42 C-41.99 42 -42.98 42 -44 42 C-42.515 42.495 -42.515 42.495 -41 43 C-41.46104611 47.14941503 -41.81245743 49.28468596 -45 52 C-48.53782844 55.83863606 -48.53782844 55.83863606 -49 61 C-48.01 60.01 -47.02 59.02 -46 58 C-45.63076923 65.50769231 -45.63076923 65.50769231 -47.5 68 C-47.995 68.33 -48.49 68.66 -49 69 C-49.33 67.68 -49.66 66.36 -50 65 C-51.4540625 65.99 -51.4540625 65.99 -52.9375 67 C-57.37102704 69.45617398 -61.02396743 70.1548736 -66 69 C-69.11445648 67.49453558 -71.98138445 65.76838103 -74.90625 63.921875 C-77.81497933 62.11493708 -80.72613117 60.60181089 -83.8125 59.125 C-88.65399635 56.73942782 -93.34694973 54.16781622 -98 51.4375 C-98.95289917 50.89150146 -98.95289917 50.89150146 -99.92504883 50.33447266 C-103.76021744 48.04722427 -106.62636919 45.81388075 -109 42 C-108.67 41.01 -108.34 40.02 -108 39 C-107.67 39.33 -107.34 39.66 -107 40 C-106.54625 39.21625 -106.0925 38.4325 -105.625 37.625 C-103.43116338 34.08111007 -101.8990902 32.79901723 -98.01953125 31.5546875 C-96.78819458 31.15334595 -96.78819458 31.15334595 -95.53198242 30.74389648 C-94.63455322 30.45716064 -93.73712402 30.1704248 -92.8125 29.875 C-90.86677099 29.2395552 -88.92147137 28.60279435 -86.9765625 27.96484375 C-85.9752832 27.63726074 -84.97400391 27.30967773 -83.94238281 26.97216797 C-79.50775058 25.50695841 -75.0964478 23.97800518 -70.6875 22.4375 C-69.78233643 22.12176025 -68.87717285 21.80602051 -67.94458008 21.48071289 C-62.22372438 19.48234793 -56.50562923 17.47610675 -50.78730774 15.47050476 C-47.24676766 14.22889847 -43.70597029 12.98802661 -40.16519165 11.74710083 C-37.56769704 10.83623927 -34.97071706 9.92392233 -32.3737793 9.01147461 C-28.34568494 7.59720258 -24.3143115 6.19263825 -20.28076172 4.79400635 C-18.03489025 4.01214641 -15.79288398 3.21983615 -13.55078125 2.42724609 C-12.19030823 1.9548156 -10.82964209 1.4829407 -9.46875 1.01171875 C-8.28732422 0.59752686 -7.10589844 0.18333496 -5.88867188 -0.2434082 C-3 -1 -3 -1 0 0 Z " fill="#C14B35" transform="translate(222,290)"/>
<path d="M0 0 C-0.94875 0.61875 -1.8975 1.2375 -2.875 1.875 C-5.94445109 3.81970969 -5.94445109 3.81970969 -8 6 C-10.03125 6.34375 -10.03125 6.34375 -12.5 6.5 C-17.77262498 6.92273232 -22.83813879 7.86878361 -28 9 C-28 9.66 -28 10.32 -28 11 C-28.69867188 11.18175781 -29.39734375 11.36351562 -30.1171875 11.55078125 C-31.02726562 11.80214844 -31.93734375 12.05351562 -32.875 12.3125 C-34.23238281 12.67794922 -34.23238281 12.67794922 -35.6171875 13.05078125 C-38.32113319 13.86669852 -38.32113319 13.86669852 -40 17 C-40.70125 16.773125 -41.4025 16.54625 -42.125 16.3125 C-45.90348979 15.90179459 -47.74039135 17.1576125 -51 19 C-51.99 19.33 -52.98 19.66 -54 20 C-55.62073975 21.93242047 -56.87257811 23.74515621 -58 26 C-58.99 26.33 -59.98 26.66 -61 27 C-62.32481546 29.39529669 -62.32481546 29.39529669 -63 32 C-62.67 32.66 -62.34 33.32 -62 34 C-65.33523252 32.61990379 -67.18607951 31.15049348 -69 28 C-68.505 26.515 -68.505 26.515 -68 25 C-67.67 25.33 -67.34 25.66 -67 26 C-66.54625 25.21625 -66.0925 24.4325 -65.625 23.625 C-63.43116338 20.08111007 -61.8990902 18.79901723 -58.01953125 17.5546875 C-57.19662598 17.28640137 -56.3737207 17.01811523 -55.52587891 16.74169922 C-54.18275635 16.31268311 -54.18275635 16.31268311 -52.8125 15.875 C-50.89927663 15.25141861 -48.9865326 14.62636503 -47.07421875 14 C-46.07696777 13.67386719 -45.0797168 13.34773438 -44.05224609 13.01171875 C-39.05678288 11.35588772 -34.09167758 9.6148873 -29.125 7.875 C-27.20582987 7.20674197 -25.28656134 6.53876647 -23.3671875 5.87109375 C-20.76951606 4.96693442 -18.17263945 4.06097049 -15.57910156 3.14501953 C-13.47206924 2.4012271 -11.36165766 1.66803362 -9.25 0.9375 C-8.10015625 0.53402344 -6.9503125 0.13054687 -5.765625 -0.28515625 C-3 -1 -3 -1 0 0 Z " fill="#943520" transform="translate(182,304)"/>
<path d="M0 0 C0.99 0.66 1.98 1.32 3 2 C0 4 0 4 -4 4 C-4 4.66 -4 5.32 -4 6 C-4.66 6 -5.32 6 -6 6 C-6.33 6.66 -6.66 7.32 -7 8 C-7.67546875 7.91621094 -8.3509375 7.83242187 -9.046875 7.74609375 C-9.93890625 7.64425781 -10.8309375 7.54242188 -11.75 7.4375 C-13.07257813 7.28087891 -13.07257813 7.28087891 -14.421875 7.12109375 C-16.94260947 7.00269562 -18.60936045 7.26661655 -21 8 C-22.13308594 8.26876953 -22.13308594 8.26876953 -23.2890625 8.54296875 C-25.66851936 9.19950785 -27.8028347 9.86904261 -30 11 C-31.54326281 13.95995431 -31.54326281 13.95995431 -32 17 C-32.66 17.66 -33.32 18.32 -34 19 C-33.88490339 17.58249437 -33.75746342 16.16598831 -33.625 14.75 C-33.55539062 13.96109375 -33.48578125 13.1721875 -33.4140625 12.359375 C-32.98492887 9.914123 -32.21399362 8.15163097 -31 6 C-29.68 6 -28.36 6 -27 6 C-24.89203944 5.46687473 -24.89203944 5.46687473 -22.734375 4.6875 C-21.92613281 4.41679687 -21.11789062 4.14609375 -20.28515625 3.8671875 C-18.60903351 3.29384505 -16.93451272 2.71579564 -15.26171875 2.1328125 C-9.9458966 0.36367993 -5.60984638 -0.48994292 0 0 Z " fill="#A5402D" transform="translate(365,151)"/>
<path d="M0 0 C-4.35933627 3.21889071 -8.32961571 4.93749395 -13.625 6.1875 C-14.60726562 6.4340332 -14.60726562 6.4340332 -15.609375 6.68554688 C-18.1975725 7.33259625 -20.78401593 7.9560293 -23.3984375 8.48828125 C-23.92695313 8.65714844 -24.45546875 8.82601563 -25 9 C-25.33 9.66 -25.66 10.32 -26 11 C-27.33333333 11.33333333 -28.66666667 11.66666667 -30 12 C-30.33 12.66 -30.66 13.32 -31 14 C-31.66902344 14.26941406 -32.33804688 14.53882813 -33.02734375 14.81640625 C-33.67832031 15.20699219 -34.32929688 15.59757812 -35 16 C-35.59115407 18.32169403 -35.59115407 18.32169403 -35.5625 20.9375 C-35.68126888 25.68126888 -35.68126888 25.68126888 -39 29 C-39 23.39 -39 17.78 -39 12 C-31.2606757 8.83886754 -23.45212982 5.95087288 -15.5625 3.1875 C-14.39267578 2.76791016 -13.22285156 2.34832031 -12.01757812 1.91601562 C-10.89931641 1.52478516 -9.78105469 1.13355469 -8.62890625 0.73046875 C-7.61900635 0.37364014 -6.60910645 0.01681152 -5.56860352 -0.35083008 C-3 -1 -3 -1 0 0 Z " fill="#7E2C18" transform="translate(222,290)"/>
<path d="M0 0 C0.66 0.33 1.32 0.66 2 1 C0.20645194 8.40315583 -1.73141173 15.72764611 -4 23 C-3.34 23.33 -2.68 23.66 -2 24 C-2.66 24.66 -3.32 25.32 -4 26 C-3.98435123 28.15472873 -3.98435123 28.15472873 -3.5625 30.5 C-2.89950372 34.79900744 -2.89950372 34.79900744 -4 37 C-4.99 37.3403125 -4.99 37.3403125 -6 37.6875 C-6.66 38.120625 -7.32 38.55375 -8 39 C-8.38063221 41.3260857 -8.71269945 43.66055264 -9 46 C-10.5625 47.9375 -10.5625 47.9375 -12 49 C-11.42263575 43.38952566 -10.36028321 38.26994196 -8.75 32.875 C-6.36856333 24.65165648 -4.42684076 16.36304229 -2.61230469 7.99755859 C-2.41540039 7.0998877 -2.21849609 6.2022168 -2.015625 5.27734375 C-1.84321289 4.47546631 -1.67080078 3.67358887 -1.49316406 2.84741211 C-1 1 -1 1 0 0 Z " fill="#94341D" transform="translate(330,171)"/>
<path d="M0 0 C0.33 0 0.66 0 1 0 C1.125 7.625 1.125 7.625 0 11 C0.21076218 14.33778479 0.5782667 17.64433843 0.94140625 20.96875 C1 24 1 24 -1 27 C-1.66 27 -2.32 27 -3 27 C-3.33 28.98 -3.66 30.96 -4 33 C-4.33 33 -4.66 33 -5 33 C-5.38530785 25.27885879 -4.26535601 18.37537743 -2.5 10.875 C-2.26152344 9.823125 -2.02304688 8.77125 -1.77734375 7.6875 C-1.19442336 5.12265028 -0.6018584 2.56045932 0 0 Z " fill="#A14C39" transform="translate(117,296)"/>
<path d="M0 0 C2 2 2 2 2 6 C-3.36000789 8.25684543 -7.1977825 9.36263859 -13 9 C-9.81779889 4.63920589 -6.88708211 2.07234478 -1.8125 0.1875 C-0.9153125 0.0946875 -0.9153125 0.0946875 0 0 Z " fill="#EF7858" transform="translate(291,352)"/>
<path d="M0 0 C1.125 3.75 1.125 3.75 0 6 C-0.06950541 7.54023996 -0.08452357 9.08334988 -0.0625 10.625 C-0.05347656 11.44226563 -0.04445312 12.25953125 -0.03515625 13.1015625 C-0.02355469 13.72804687 -0.01195312 14.35453125 0 15 C-0.99 15.33 -1.98 15.66 -3 16 C-3 18.31 -3 20.62 -3 23 C-3.66 23 -4.32 23 -5 23 C-5.33 24.32 -5.66 25.64 -6 27 C-6.33 27 -6.66 27 -7 27 C-6.59286372 21.19830795 -5.5459662 15.74495032 -4.0625 10.125 C-3.89266602 9.47072021 -3.72283203 8.81644043 -3.54785156 8.14233398 C-2.68881856 4.98477409 -1.83501587 2.7525238 0 0 Z " fill="#9E4D3C" transform="translate(150,163)"/>
<path d="M0 0 C0 0.99 0 1.98 0 3 C-0.78246094 3.12117188 -1.56492187 3.24234375 -2.37109375 3.3671875 C-3.88896484 3.61855469 -3.88896484 3.61855469 -5.4375 3.875 C-6.44683594 4.03742188 -7.45617187 4.19984375 -8.49609375 4.3671875 C-9.32238281 4.57601562 -10.14867187 4.78484375 -11 5 C-11.33 5.66 -11.66 6.32 -12 7 C-18.29093911 9.7210808 -24.22405887 10.32786812 -31 10 C-25.90037312 7.29174059 -20.4012374 5.69089863 -14.9375 3.875 C-13.83599609 3.50246094 -12.73449219 3.12992187 -11.59960938 2.74609375 C-10.54451172 2.39417969 -9.48941406 2.04226562 -8.40234375 1.6796875 C-7.43804443 1.35726074 -6.47374512 1.03483398 -5.48022461 0.70263672 C-3 0 -3 0 0 0 Z " fill="#944737" transform="translate(286,114)"/>
<path d="M0 0 C2.63223689 2.30320728 3.57324943 3.85119794 4.5 7.1875 C1.23539027 5.38337357 -0.38929795 4.35355307 -2.5 1.1875 C-5.06282742 0.45784634 -5.06282742 0.45784634 -7.5 0.1875 C-7.5 -0.4725 -7.5 -1.1325 -7.5 -1.8125 C-11.98933618 -1.51728288 -16.08498103 -1.20007628 -20.1875 0.75 C-23.61112304 2.23572321 -25.8182363 2.45689734 -29.5 2.1875 C-27.19412696 -0.11837304 -25.72901367 -0.49537595 -22.625 -1.375 C-21.76132812 -1.62378906 -20.89765625 -1.87257813 -20.0078125 -2.12890625 C-19.18023437 -2.35449219 -18.35265625 -2.58007812 -17.5 -2.8125 C-16.50226563 -3.12574219 -16.50226563 -3.12574219 -15.484375 -3.4453125 C-10.18581282 -4.42575511 -4.64303549 -2.40442909 0 0 Z " fill="#6D3226" transform="translate(335.5,105.8125)"/>
<path d="M0 0 C0.66 0.33 1.32 0.66 2 1 C1.01 2.485 1.01 2.485 0 4 C1.65 4.33 3.3 4.66 5 5 C4.67 5.66 4.34 6.32 4 7 C3.01 7.33 2.02 7.66 1 8 C-0.32481546 10.39529669 -0.32481546 10.39529669 -1 13 C-0.67 13.66 -0.34 14.32 0 15 C-3.33523252 13.61990379 -5.18607951 12.15049348 -7 9 C-6.67 8.01 -6.34 7.02 -6 6 C-5.67 6.33 -5.34 6.66 -5 7 C-4.54625 6.21625 -4.0925 5.4325 -3.625 4.625 C-2 2 -2 2 0 0 Z " fill="#A83F2A" transform="translate(120,323)"/>
<path d="M0 0 C-0.99 0.33 -1.98 0.66 -3 1 C-2.67 1.99 -2.34 2.98 -2 4 C-3.5625 5.5625 -3.5625 5.5625 -6 7 C-8.33944736 6.71269945 -10.6739143 6.38063221 -13 6 C-13.99 6.66 -14.98 7.32 -16 8 C-18.6875 7.625 -18.6875 7.625 -21 7 C-18.02380583 4.02380583 -14.42456111 3.18190761 -10.5 1.8125 C-9.71496094 1.52697266 -8.92992187 1.24144531 -8.12109375 0.94726562 C-6.99380859 0.54991211 -6.99380859 0.54991211 -5.84375 0.14453125 C-5.15474609 -0.09934326 -4.46574219 -0.34321777 -3.75585938 -0.59448242 C-2 -1 -2 -1 0 0 Z " fill="#933623" transform="translate(295,264)"/>
<path d="M0 0 C0 0.66 0 1.32 0 2 C-8.0697879 5.29848745 -15.92082855 8.31357882 -24.625 6.0625 C-25.40875 5.711875 -26.1925 5.36125 -27 5 C-24.1497943 4.04993143 -22.13950133 4.02731742 -19.0625 4.125 C-15.16916229 4.18964952 -13.29119327 3.10973928 -10 1 C-6.59444892 0.35411962 -3.46275918 0 0 0 Z " fill="#A2513B" transform="translate(204,386)"/>
<path d="M0 0 C1.96722951 6.40458931 0.5617541 12.9723433 -2 19 C-2.33499886 20.59961955 -2.64471426 22.20461833 -2.9375 23.8125 C-3.81145171 28.4759063 -5.21164387 32.6103986 -7 37 C-8.28417602 33.14747194 -7.29120831 30.52387633 -6.25 26.75 C-4.43332562 19.8756915 -2.94179049 12.99566958 -1.61328125 6.01171875 C-1 3 -1 3 0 0 Z " fill="#8D4535" transform="translate(137,211)"/>
<path d="M0 0 C0.66 0.33 1.32 0.66 2 1 C-0.25557736 4.38336604 -1.36188532 4.60072512 -5 6 C-5.33 6.66 -5.66 7.32 -6 8 C-7.8253125 7.9690625 -7.8253125 7.9690625 -9.6875 7.9375 C-12.91977322 7.93175884 -15.84934741 8.21233685 -19 9 C-19 8.34 -19 7.68 -19 7 C-16.39608461 6.02016072 -13.79188032 5.04110206 -11.1875 4.0625 C-10.44951172 3.78470703 -9.71152344 3.50691406 -8.95117188 3.22070312 C-8.23896484 2.95322266 -7.52675781 2.68574219 -6.79296875 2.41015625 C-6.1383667 2.16402588 -5.48376465 1.91789551 -4.80932617 1.66430664 C-3.21688185 1.07962967 -1.60933324 0.53644441 0 0 Z " fill="#852F1B" transform="translate(271,271)"/>
<path d="M0 0 C-1.56580666 3.13161332 -4.17815522 3.45604434 -7.375 4.6875 C-8.53773438 5.14511719 -9.70046875 5.60273438 -10.8984375 6.07421875 C-14 7 -14 7 -17 6 C-17.33 6.33 -17.66 6.66 -18 7 C-19.99958364 7.04080783 -22.00045254 7.04254356 -24 7 C-20.84160433 3.84160433 -16.76336074 3.12623496 -12.5625 1.8125 C-11.69044922 1.52697266 -10.81839844 1.24144531 -9.91992188 0.94726562 C-9.08138672 0.68236328 -8.24285156 0.41746094 -7.37890625 0.14453125 C-6.6113501 -0.09934326 -5.84379395 -0.34321777 -5.05297852 -0.59448242 C-3 -1 -3 -1 0 0 Z " fill="#964B38" transform="translate(255,125)"/>
<path d="M0 0 C0.33 0 0.66 0 1 0 C1.02692484 2.29160319 1.04636124 4.58329546 1.0625 6.875 C1.07410156 8.15117187 1.08570313 9.42734375 1.09765625 10.7421875 C1 14 1 14 0 16 C-1.32 16 -2.64 16 -4 16 C-4 17.65 -4 19.3 -4 21 C-4.33 21 -4.66 21 -5 21 C-5.33 18.36 -5.66 15.72 -6 13 C-5.01 12.67 -4.02 12.34 -3 12 C-2.26676204 9.98491642 -2.26676204 9.98491642 -2 8 C-2.66 8 -3.32 8 -4 8 C-3.67 7.01 -3.34 6.02 -3 5 C-2.34 5 -1.68 5 -1 5 C-0.67 3.35 -0.34 1.7 0 0 Z " fill="#D5755A" transform="translate(343,315)"/>
<path d="M0 0 C0 3 0 3 -1.875 4.9375 C-7.6716989 8.76332128 -13.91550451 11.74573637 -21 11 C-19.66666667 10.33333333 -18.33333333 9.66666667 -17 9 C-15.989375 8.46375 -14.97875 7.9275 -13.9375 7.375 C-11 6 -11 6 -8 6 C-7.79375 5.38125 -7.5875 4.7625 -7.375 4.125 C-5.45224112 1.15346355 -3.33405473 0.86975341 0 0 Z " fill="#ED775B" transform="translate(300,256)"/>
<path d="M0 0 C0.66 0 1.32 0 2 0 C2 0.99 2 1.98 2 3 C4.64 2.67 7.28 2.34 10 2 C9.67 2.99 9.34 3.98 9 5 C9.66 5.33 10.32 5.66 11 6 C11 5.34 11 4.68 11 4 C12.875 4.3125 12.875 4.3125 15 5 C15.99 6.485 15.99 6.485 17 8 C11.90672464 8.17563018 7.6827683 8.28693336 3 6 C0 1.9 0 1.9 0 0 Z " fill="#DC694C" transform="translate(172,383)"/>
<path d="M0 0 C1.65 0.33 3.3 0.66 5 1 C1.30105084 4.86708321 1.30105084 4.86708321 -1.98828125 5.203125 C-6.8717179 5.30161448 -9.98077177 5.11166057 -14 2 C-10.84493858 1.06380187 -8.03413498 0.8942877 -4.75 0.9375 C-3.85796875 0.94652344 -2.9659375 0.95554687 -2.046875 0.96484375 C-1.37140625 0.97644531 -0.6959375 0.98804688 0 1 C0 0.67 0 0.34 0 0 Z " fill="#984235" transform="translate(165,354)"/>
<path d="M0 0 C1.63992836 4.06326199 0.2975036 7.65929133 -0.8125 11.6875 C-1.18966555 13.11826224 -1.56597277 14.54925103 -1.94140625 15.98046875 C-2.12461426 16.66931152 -2.30782227 17.3581543 -2.49658203 18.06787109 C-3.43996881 21.68860968 -4.2161669 25.3421122 -5 29 C-6.0728159 25.27295811 -5.65138981 22.8359622 -5 19 C-5 16.67881486 -5.06002842 14.36974188 -5.16015625 12.05078125 C-5 10 -5 10 -3 7 C-2.32136945 5.0040278 -1.65358081 3.00431449 -1 1 C-0.67 0.67 -0.34 0.34 0 0 Z " fill="#964331" transform="translate(365,228)"/>
<path d="M0 0 C1.65 0 3.3 0 5 0 C5.33 0.66 5.66 1.32 6 2 C5.01 3.485 5.01 3.485 4 5 C2.68 5 1.36 5 0 5 C-0.33 5.99 -0.66 6.98 -1 8 C-2.98 8 -4.96 8 -7 8 C-7 7.34 -7 6.68 -7 6 C-5.01310269 4.64721885 -3.01254782 3.31431695 -1 2 C-0.67 1.34 -0.34 0.68 0 0 Z " fill="#EA6E53" transform="translate(215,376)"/>
<path d="M0 0 C-1.64422201 1.00264718 -3.29042221 2.00205104 -4.9375 3 C-6.31228516 3.8353125 -6.31228516 3.8353125 -7.71484375 4.6875 C-10 6 -10 6 -11 6 C-11.28875 6.94875 -11.5775 7.8975 -11.875 8.875 C-13 12 -13 12 -15 14 C-14.88490339 12.58249437 -14.75746342 11.16598831 -14.625 9.75 C-14.55539062 8.96109375 -14.48578125 8.1721875 -14.4140625 7.359375 C-13.98492887 4.914123 -13.21399362 3.15163097 -12 1 C-10.68 1 -9.36 1 -8 1 C-6.96875 0.649375 -5.9375 0.29875 -4.875 -0.0625 C-2 -1 -2 -1 0 0 Z " fill="#60251B" transform="translate(346,156)"/>
<path d="M0 0 C2.0625 0.4375 2.0625 0.4375 4 1 C1.45884998 1.95972174 -1.08289457 2.91781494 -3.625 3.875 C-4.33785156 4.14441406 -5.05070312 4.41382813 -5.78515625 4.69140625 C-18.33187906 9.41081575 -18.33187906 9.41081575 -22 8 C-21.34 8 -20.68 8 -20 8 C-20 7.34 -20 6.68 -20 6 C-19.42967041 5.85377197 -18.85934082 5.70754395 -18.27172852 5.55688477 C-15.70105211 4.89565885 -13.13177426 4.22915229 -10.5625 3.5625 C-9.66466797 3.33240234 -8.76683594 3.10230469 -7.84179688 2.86523438 C-6.98779297 2.64287109 -6.13378906 2.42050781 -5.25390625 2.19140625 C-4.46314697 1.98717041 -3.6723877 1.78293457 -2.85766602 1.57250977 C-1.0038412 1.15967047 -1.0038412 1.15967047 0 0 Z " fill="#E9765C" transform="translate(202,293)"/>
<path d="M0 0 C2.64 0.33 5.28 0.66 8 1 C7.01 1.495 7.01 1.495 6 2 C6 2.66 6 3.32 6 4 C4.04486839 4.696553 2.08577524 5.38199565 0.125 6.0625 C-0.96554688 6.44535156 -2.05609375 6.82820313 -3.1796875 7.22265625 C-6 8 -6 8 -8 7 C-7 5 -7 5 -4.5625 4.0625 C-1.70136041 3.15452711 -1.70136041 3.15452711 0 0 Z " fill="#B25540" transform="translate(222,376)"/>
<path d="M0 0 C0.33 0 0.66 0 1 0 C1.03738281 0.92941406 1.07476562 1.85882813 1.11328125 2.81640625 C1.61618276 12.29439483 1.61618276 12.29439483 5 21 C5.33 21.66 5.66 22.32 6 23 C2.12464625 21.53003823 0.79691548 19.69054879 -1 16 C-1.328125 12.7734375 -1.328125 12.7734375 -1.25 9.375 C-1.23453125 8.24835938 -1.2190625 7.12171875 -1.203125 5.9609375 C-1 3 -1 3 0 0 Z " fill="#733526" transform="translate(170,367)"/>
<path d="M0 0 C-2.8956414 3.32462531 -4.69268237 4.30151606 -9 5 C-9.33 5.66 -9.66 6.32 -10 7 C-11.65 6.67 -13.3 6.34 -15 6 C-14 3 -14 3 -11.6015625 1.796875 C-10.61929688 1.45140625 -9.63703125 1.1059375 -8.625 0.75 C-7.64789063 0.39421875 -6.67078125 0.0384375 -5.6640625 -0.328125 C-3 -1 -3 -1 0 0 Z " fill="#7E2B18" transform="translate(251,280)"/>
<path d="M0 0 C0.66 0.33 1.32 0.66 2 1 C1.38349606 6.59257146 0.45925114 11.9731814 -0.875 17.4375 C-1.03613281 18.15615234 -1.19726562 18.87480469 -1.36328125 19.61523438 C-1.8671875 21.68359375 -1.8671875 21.68359375 -3 25 C-3.99 25.33 -4.98 25.66 -6 26 C-6 25.34 -6 24.68 -6 24 C-5.34 24 -4.68 24 -4 24 C-3.93941406 23.09636719 -3.87882812 22.19273437 -3.81640625 21.26171875 C-3.73261719 20.08222656 -3.64882813 18.90273437 -3.5625 17.6875 C-3.48128906 16.51574219 -3.40007812 15.34398437 -3.31640625 14.13671875 C-3 11 -3 11 -2 8 C-1.34 8 -0.68 8 0 8 C0 5.36 0 2.72 0 0 Z " fill="#8C4637" transform="translate(339,129)"/>
<path d="M0 0 C2.64 0.33 5.28 0.66 8 1 C5 3 5 3 3 3 C2.67 3.99 2.34 4.98 2 6 C-3.75 7.125 -3.75 7.125 -6 6 C-6 5.34 -6 4.68 -6 4 C-5.38125 3.896875 -4.7625 3.79375 -4.125 3.6875 C-1.63473516 3.12474627 -1.63473516 3.12474627 0 0 Z " fill="#CC6346" transform="translate(237,370)"/>
<path d="M0 0 C0.33 0 0.66 0 1 0 C1.43230491 7.34918342 -0.18225815 13.90215087 -2 21 C-2.66 21 -3.32 21 -4 21 C-3.54034292 13.69303751 -2.11670277 7.00242552 0 0 Z " fill="#994B3B" transform="translate(142,190)"/>
<path d="M0 0 C0.66 0.33 1.32 0.66 2 1 C1.67 1.66 1.34 2.32 1 3 C0.34 3 -0.32 3 -1 3 C-0.94779297 4.35544922 -0.94779297 4.35544922 -0.89453125 5.73828125 C-0.86746094 6.91777344 -0.84039062 8.09726562 -0.8125 9.3125 C-0.77769531 10.48425781 -0.74289063 11.65601563 -0.70703125 12.86328125 C-1 16 -1 16 -4 19 C-4 13.39 -4 7.78 -4 2 C-2.68 1.34 -1.36 0.68 0 0 Z " fill="#923725" transform="translate(187,300)"/>
<path d="M0 0 C-1.423125 0.928125 -1.423125 0.928125 -2.875 1.875 C-5.94445109 3.81970969 -5.94445109 3.81970969 -8 6 C-10.3828125 5.9765625 -10.3828125 5.9765625 -13.125 5.625 C-14.03507813 5.51414062 -14.94515625 5.40328125 -15.8828125 5.2890625 C-16.93082031 5.14597656 -16.93082031 5.14597656 -18 5 C-15.4033438 2.4033438 -13.06184625 1.89312309 -9.5625 0.8125 C-8.40878906 0.44769531 -7.25507813 0.08289063 -6.06640625 -0.29296875 C-3 -1 -3 -1 0 0 Z " fill="#9E3A25" transform="translate(182,304)"/>
<path d="M0 0 C0.66 0.33 1.32 0.66 2 1 C1.35812082 6.13503344 0.31727753 10.9943454 -1 16 C-1.99 16 -2.98 16 -4 16 C-4 14.68 -4 13.36 -4 12 C-3.34 12 -2.68 12 -2 12 C-1.93941406 11.30132812 -1.87882812 10.60265625 -1.81640625 9.8828125 C-1.69072266 8.51769531 -1.69072266 8.51769531 -1.5625 7.125 C-1.48128906 6.22007812 -1.40007812 5.31515625 -1.31640625 4.3828125 C-1 2 -1 2 0 0 Z " fill="#AA513F" transform="translate(353,275)"/>
<path d="M0 0 C-5.62470514 3.06802099 -10.69403048 4.89061647 -17 6 C-17.33 5.01 -17.66 4.02 -18 3 C-15.03 2.34 -12.06 1.68 -9 1 C-9 0.67 -9 0.34 -9 0 C-5.5657338 -0.85856655 -3.38317487 -0.97591583 0 0 Z " fill="#A35C48" transform="translate(334,343)"/>
<path d="M0 0 C0.33 0 0.66 0 1 0 C1.02705729 1.77074917 1.04642195 3.54161711 1.0625 5.3125 C1.07410156 6.29863281 1.08570312 7.28476562 1.09765625 8.30078125 C1 11 1 11 0 14 C-0.66 14 -1.32 14 -2 14 C-2 15.65 -2 17.3 -2 19 C-2.66 19.33 -3.32 19.66 -4 20 C-2.82144268 13.29225357 -1.52351686 6.63818061 0 0 Z " fill="#894230" transform="translate(122,276)"/>
<path d="M0 0 C-2.5627126 3.13220429 -5.10900977 4.04560617 -9 5 C-11.69291219 5.15041492 -14.29879075 5.09314515 -17 5 C-14.51737568 2.51737568 -12.38224713 1.92713025 -9.0625 0.8125 C-8.00160156 0.44769531 -6.94070312 0.08289063 -5.84765625 -0.29296875 C-3 -1 -3 -1 0 0 Z " fill="#9B4B3B" transform="translate(196,144)"/>
<path d="M0 0 C-0.33 0.99 -0.66 1.98 -1 3 C-2.794375 3.0928125 -2.794375 3.0928125 -4.625 3.1875 C-9.40730383 3.74912287 -11.60507231 5.68994551 -15 9 C-13.21117695 4.44663223 -9.96525461 2.25061657 -5.9375 -0.3125 C-3.57043902 -1.15242486 -2.33106248 -0.83252231 0 0 Z " fill="#833E32" transform="translate(166,154)"/>
<path d="M0 0 C1.134375 0.020625 2.26875 0.04125 3.4375 0.0625 C0.42244548 2.07253635 -2.13746212 3.05421541 -5.5625 4.1875 C-6.614375 4.54070312 -7.66625 4.89390625 -8.75 5.2578125 C-11.5625 6.0625 -11.5625 6.0625 -14.5625 6.0625 C-14.5625 5.4025 -14.5625 4.7425 -14.5625 4.0625 C-13.85222656 3.85753906 -13.14195312 3.65257812 -12.41015625 3.44140625 C-11.49105469 3.17199219 -10.57195312 2.90257812 -9.625 2.625 C-8.25021484 2.22474609 -8.25021484 2.22474609 -6.84765625 1.81640625 C-1.41733871 0.02486559 -1.41733871 0.02486559 0 0 Z " fill="#9C4E3C" transform="translate(254.5625,368.9375)"/>
<path d="M0 0 C0.33 0.99 0.66 1.98 1 3 C0.071875 3.7425 -0.85625 4.485 -1.8125 5.25 C-4.28938352 7.29561439 -6.086471 9.41673584 -8 12 C-8.66 12 -9.32 12 -10 12 C-10.66 12.66 -11.32 13.32 -12 14 C-12 11 -12 11 -10.64453125 9.5703125 C-9.73767578 8.85488281 -9.73767578 8.85488281 -8.8125 8.125 C-5.66918231 5.56945716 -2.82032768 2.90579216 0 0 Z " fill="#A63B27" transform="translate(310,249)"/>
<path d="M0 0 C2 1 2 1 2.8125 2.6875 C3.19960265 7.461766 -0.1154933 11.42870599 -3 15 C-2.44854729 9.76119922 -1.57077907 5.02649303 0 0 Z " fill="#A73B27" transform="translate(317,221)"/>
<path d="M0 0 C0 0.99 0 1.98 0 3 C-0.66 3 -1.32 3 -2 3 C-1.67 3.99 -1.34 4.98 -1 6 C-4.24208567 5.64950425 -5.61527704 5.43778819 -7.8125 2.9375 C-8.4003125 1.9784375 -8.4003125 1.9784375 -9 1 C-5.8035914 -0.06546953 -3.34252724 -0.07427838 0 0 Z " fill="#CA513A" transform="translate(136,338)"/>
<path d="M0 0 C0.99 0 1.98 0 3 0 C2.40716379 3.39192363 1.23256811 5.2107757 -1.0625 7.75 C-1.61035156 8.36359375 -2.15820312 8.9771875 -2.72265625 9.609375 C-3.14417969 10.06828125 -3.56570313 10.5271875 -4 11 C-4.33 10.01 -4.66 9.02 -5 8 C-5.66 7.67 -6.32 7.34 -7 7 C-6.01 7 -5.02 7 -4 7 C-3.67 6.01 -3.34 5.02 -3 4 C-2.34 4 -1.68 4 -1 4 C-0.67 2.68 -0.34 1.36 0 0 Z " fill="#9A5945" transform="translate(339,331)"/>
<path d="M0 0 C0.33 0 0.66 0 1 0 C1.02715383 1.74991334 1.04646551 3.49994945 1.0625 5.25 C1.07410156 6.22453125 1.08570313 7.1990625 1.09765625 8.203125 C1.01195577 10.65758678 0.70706066 12.66168914 0 15 C-0.66 15 -1.32 15 -2 15 C-2.33 15.99 -2.66 16.98 -3 18 C-2.41509121 11.85845775 -1.45933748 5.99320151 0 0 Z " fill="#824032" transform="translate(128,248)"/>
<path d="M0 0 C0.33 0.66 0.66 1.32 1 2 C2.670625 1.9690625 2.670625 1.9690625 4.375 1.9375 C8 2 8 2 10 3 C11.32860925 3.35169068 12.66158328 3.68770276 14 4 C13 5 13 5 10.71484375 5.09765625 C9.34005859 5.08025391 9.34005859 5.08025391 7.9375 5.0625 C7.01839844 5.05347656 6.09929687 5.04445313 5.15234375 5.03515625 C4.44207031 5.02355469 3.73179687 5.01195312 3 5 C3 4.34 3 3.68 3 3 C2.01 3.33 1.02 3.66 0 4 C0 2.68 0 1.36 0 0 Z " fill="#F0815F" transform="translate(304,344)"/>
<path d="M0 0 C1.32341307 4.03325887 0.51033679 6.26833092 -1.03125 10.09375 C-2.28430484 12.55943856 -3.87897532 14.24466923 -6 16 C-6 11.18766734 -4.65228477 9.90041878 -2 6 C-0.75675853 2.7750792 -0.75675853 2.7750792 0 0 Z " fill="#EF775B" transform="translate(312,236)"/>
<path d="M0 0 C-8.261959 5.74031891 -8.261959 5.74031891 -13 5 C-11.74922363 2.49844727 -10.64972695 2.07787452 -8.1875 0.8125 C-7.50042969 0.44769531 -6.81335938 0.08289063 -6.10546875 -0.29296875 C-3.64003451 -1.12087895 -2.41707906 -0.85276722 0 0 Z " fill="#89392B" transform="translate(354,154)"/>
<path d="M0 0 C0.66 0.33 1.32 0.66 2 1 C1.855625 1.680625 1.71125 2.36125 1.5625 3.0625 C0.93705965 6.10071949 0.93705965 6.10071949 0.625 9.625 C0.00573025 12.96905665 -0.33408282 14.02953947 -3 16 C-2.40984815 10.49191603 -1.43336231 5.35121931 0 0 Z " fill="#A23A24" transform="translate(321,204)"/>
<path d="M0 0 C0.99 0 1.98 0 3 0 C2.67 1.32 2.34 2.64 2 4 C1.01 3.67 0.02 3.34 -1 3 C-1 3.66 -1 4.32 -1 5 C-3.31 5 -5.62 5 -8 5 C-7.34 4.67 -6.68 4.34 -6 4 C-6 3.34 -6 2.68 -6 2 C-4.7934375 1.7834375 -4.7934375 1.7834375 -3.5625 1.5625 C-1.07896294 1.25864751 -1.07896294 1.25864751 0 0 Z " fill="#F17155" transform="translate(270,360)"/>
<path d="M0 0 C0.66 0 1.32 0 2 0 C2 0.66 2 1.32 2 2 C2.66 2 3.32 2 4 2 C4.33 1.34 4.66 0.68 5 0 C6.9375 0.3125 6.9375 0.3125 9 1 C9.33 1.99 9.66 2.98 10 4 C6.7 3.67 3.4 3.34 0 3 C0 2.01 0 1.02 0 0 Z " fill="#F16548" transform="translate(151,352)"/>
<path d="M0 0 C1.27875 -0.061875 2.5575 -0.12375 3.875 -0.1875 C4.95394531 -0.23970703 4.95394531 -0.23970703 6.0546875 -0.29296875 C6.69664062 -0.19628906 7.33859375 -0.09960938 8 0 C10 3 10 3 11 6 C11.66 6.66 12.32 7.32 13 8 C11.25 7.8125 11.25 7.8125 9 7 C8.360625 6.175 7.72125 5.35 7.0625 4.5 C5.21388522 1.78439848 5.21388522 1.78439848 2.25 1.1875 C1.13625 1.0946875 1.13625 1.0946875 0 1 C0 0.67 0 0.34 0 0 Z " fill="#E15D42" transform="translate(136,344)"/>
<path d="M0 0 C0.33 0.66 0.66 1.32 1 2 C1.99 2 2.98 2 4 2 C3.74438677 4.3431213 3.40729228 6.67843403 3 9 C2.01 9.495 2.01 9.495 1 10 C-0.60725635 6.78548731 -0.05748185 3.56387464 0 0 Z " fill="#EB7B64" transform="translate(113,321)"/>
<path d="M0 0 C0.33 0 0.66 0 1 0 C1 2.64 1 5.28 1 8 C0.34 8 -0.32 8 -1 8 C-1.33 9.32 -1.66 10.64 -2 12 C-2.33 12 -2.66 12 -3 12 C-2.88541307 10.56163249 -2.75790884 9.12429034 -2.625 7.6875 C-2.55539063 6.88699219 -2.48578125 6.08648437 -2.4140625 5.26171875 C-2 3 -2 3 0 0 Z " fill="#AE5948" transform="translate(146,178)"/>
<path d="M0 0 C-1 2 -1 2 -3.28515625 2.8515625 C-4.65994141 3.23441406 -4.65994141 3.23441406 -6.0625 3.625 C-6.98160156 3.88539063 -7.90070313 4.14578125 -8.84765625 4.4140625 C-9.55792969 4.60742188 -10.26820313 4.80078125 -11 5 C-9.65141812 1.83180047 -9.35937299 1.16057091 -6.0625 -0.3125 C-3 -1 -3 -1 0 0 Z " fill="#AC5745" transform="translate(255,125)"/>
<path d="M0 0 C-1 2 -1 2 -3.6875 3.125 C-6.9579435 3.98889074 -9.63706182 4.16013991 -13 4 C-9.15294495 0.15294495 -5.29192831 -0.2461362 0 0 Z " fill="#834031" transform="translate(319,104)"/>
<path d="M0 0 C0.763125 0.0825 1.52625 0.165 2.3125 0.25 C2.6425 0.91 2.9725 1.57 3.3125 2.25 C2.9825 2.91 2.6525 3.57 2.3125 4.25 C-0.3275 4.25 -2.9675 4.25 -5.6875 4.25 C-3.34903846 0.31153846 -3.34903846 0.31153846 0 0 Z " fill="#EE6D47" transform="translate(217.6875,375.75)"/>
<path d="M0 0 C0.66 0.33 1.32 0.66 2 1 C2 1.66 2 2.32 2 3 C2.66 3 3.32 3 4 3 C4 3.99 4 4.98 4 6 C2.02 6.33 0.04 6.66 -2 7 C-2.33 5.68 -2.66 4.36 -3 3 C-2.01 2.67 -1.02 2.34 0 2 C0 1.34 0 0.68 0 0 Z " fill="#EF8665" transform="translate(330,336)"/>
<path d="M0 0 C-4.61012242 2.95047835 -7.36529617 4.5497272 -13 4 C-10.96180154 1.96180154 -9.70582202 1.32158941 -7.0625 0.3125 C-6.37285156 0.04050781 -5.68320313 -0.23148437 -4.97265625 -0.51171875 C-3 -1 -3 -1 0 0 Z " fill="#7E2C15" transform="translate(236,285)"/>
<path d="M0 0 C-1.26607607 0.53229326 -2.53810412 1.05044544 -3.8125 1.5625 C-4.52019531 1.85253906 -5.22789062 2.14257812 -5.95703125 2.44140625 C-8 3 -8 3 -11 2 C-10.34 2 -9.68 2 -9 2 C-9 1.01 -9 0.02 -9 -1 C-5.22102349 -2.0497157 -3.35080929 -2.10976881 0 0 Z " fill="#934A38" transform="translate(293,358)"/>
<path d="M0 0 C0.33 0 0.66 0 1 0 C1.36923077 7.50769231 1.36923077 7.50769231 -0.5 10 C-0.995 10.33 -1.49 10.66 -2 11 C-2.25 3.375 -2.25 3.375 0 0 Z " fill="#722A1D" transform="translate(175,348)"/>
<path d="M0 0 C2.64 0.33 5.28 0.66 8 1 C8 1.66 8 2.32 8 3 C8.99 3.33 9.98 3.66 11 4 C9.4375 4.75 9.4375 4.75 7 5 C4.49713591 3.86915563 2.32992278 2.47860484 0 1 C0 0.67 0 0.34 0 0 Z " fill="#923D2E" transform="translate(131,344)"/>
<path d="M0 0 C-6.435 1.98 -6.435 1.98 -13 4 C-12.67 3.01 -12.34 2.02 -12 1 C-10.29296875 0.234375 -10.29296875 0.234375 -8.1875 -0.25 C-7.50042969 -0.42015625 -6.81335938 -0.5903125 -6.10546875 -0.765625 C-4 -1 -4 -1 0 0 Z " fill="#E5725A" transform="translate(164,309)"/>
<path d="M0 0 C3 1 3 1 5 3 C5.3721042 4.32303717 5.70630173 5.65737935 6 7 C6.33 7.66 6.66 8.32 7 9 C3.64564078 7.61198929 1.88709697 6.11371 0 3 C0 2.01 0 1.02 0 0 Z " fill="#7D3A2E" transform="translate(113,329)"/>
<path d="M0 0 C-1.59915881 0.69906942 -3.20455045 1.38389468 -4.8125 2.0625 C-5.70582031 2.44535156 -6.59914062 2.82820313 -7.51953125 3.22265625 C-10 4 -10 4 -13 3 C-8.54984267 0.07561089 -5.22916941 -1.74305647 0 0 Z " fill="#E57358" transform="translate(142,316)"/>
<path d="M0 0 C-0.99 1.485 -0.99 1.485 -2 3 C-4.1640625 3.29296875 -4.1640625 3.29296875 -6.625 3.1875 C-7.44226563 3.16042969 -8.25953125 3.13335937 -9.1015625 3.10546875 C-10.04128906 3.05326172 -10.04128906 3.05326172 -11 3 C-7.74003139 -0.25996861 -4.40088745 -1.46696248 0 0 Z " fill="#914334" transform="translate(208,140)"/>
<path d="M0 0 C1.875 0.3125 1.875 0.3125 4 1 C4.66 1.99 5.32 2.98 6 4 C3.36 4 0.72 4 -2 4 C-2.33 3.34 -2.66 2.68 -3 2 C-2.01 2 -1.02 2 0 2 C0 1.34 0 0.68 0 0 Z " fill="#EE674B" transform="translate(183,387)"/>
<path d="M0 0 C0.33 0 0.66 0 1 0 C1 2.31 1 4.62 1 7 C-0.175625 6.9690625 -0.175625 6.9690625 -1.375 6.9375 C-3.98114961 6.81315937 -3.98114961 6.81315937 -6 8 C-6 6.68 -6 5.36 -6 4 C-4.35 4 -2.7 4 -1 4 C-0.67 2.68 -0.34 1.36 0 0 Z " fill="#E86749" transform="translate(170,348)"/>
<path d="M0 0 C0.33 0 0.66 0 1 0 C1.08004482 3.5219721 1.04005702 6.61981469 0 10 C-0.66 10 -1.32 10 -2 10 C-3.05236973 6.65155086 -3.20005388 5.40920111 -1.625 2.1875 C-1.08875 1.465625 -0.5525 0.74375 0 0 Z " fill="#E4634D" transform="translate(366,216)"/>
<path d="M0 0 C0.99 0 1.98 0 3 0 C2.6875 2.875 2.6875 2.875 2 6 C1.01 6.66 0.02 7.32 -1 8 C-0.67 5.36 -0.34 2.72 0 0 Z " fill="#E76A52" transform="translate(173,344)"/>
<path d="M0 0 C1.98 0 3.96 0 6 0 C4.68 1.32 3.36 2.64 2 4 C1.01 3.67 0.02 3.34 -1 3 C-0.67 2.01 -0.34 1.02 0 0 Z M-3 3 C-2.34 3 -1.68 3 -1 3 C-1.33 3.99 -1.66 4.98 -2 6 C-2.33 5.01 -2.66 4.02 -3 3 Z " fill="#6E2517" transform="translate(189,300)"/>
<path d="M0 0 C0.66 0.66 1.32 1.32 2 2 C0.25 7.75 0.25 7.75 -2 10 C-1.85950482 8.52031676 -1.71245174 7.04125484 -1.5625 5.5625 C-1.48128906 4.73878906 -1.40007812 3.91507813 -1.31640625 3.06640625 C-1 1 -1 1 0 0 Z " fill="#99371F" transform="translate(333,160)"/>
<path d="M0 0 C2.64 0.33 5.28 0.66 8 1 C4.5647952 3.29013653 3.014669 3.17842973 -1 3 C-0.67 2.01 -0.34 1.02 0 0 Z " fill="#F36C51" transform="translate(237,370)"/>
<path d="M0 0 C2.31 0.33 4.62 0.66 7 1 C4.08235 2.9451 2.37462715 3.45276317 -1 4 C-0.67 2.68 -0.34 1.36 0 0 Z " fill="#AB533B" transform="translate(274,360)"/>
<path d="M0 0 C-2.3125 1.5625 -2.3125 1.5625 -5 3 C-5.99 2.67 -6.98 2.34 -8 2 C-8.33 1.34 -8.66 0.68 -9 0 C-5.62182575 -0.84454356 -3.32534757 -1.10844919 0 0 Z " fill="#7C4638" transform="translate(334,343)"/>
<path d="M0 0 C2.7839183 1.39195915 2.97898997 3.15575779 4 6 C2.35 5.67 0.7 5.34 -1 5 C-1.33 3.68 -1.66 2.36 -2 1 C-1.34 0.67 -0.68 0.34 0 0 Z " fill="#B5513E" transform="translate(141,345)"/>
</svg>
